# xmcd CD database file
#
# Track frame offsets:
#	150
#	36675
#	70064
#	120827
#	138876
#	154994
#	194175
#	210538
#
# Disc length: 3361 seconds
#
# Revision: 0
# Processed by: cddbd v1.5.2PL0 Copyright (c) Steve Scherf et al.
# Submitted via: CDex 1.70beta2
#
DISCID=760d1f08
DTITLE=Andrew Hill - Chico Hamilton - Dreams Come True
DYEAR=1993
DGENRE=Jazz
TTITLE0=Ohho
TTITLE1=Three Notes and A Brush
TTITLE2=Watch That Dream
TTITLE3=And the Drums Sing
TTITLE4=Clifford's Gone
TTITLE5=Shaw Nuff
TTITLE6=Bless That Dream, Maybe Hope
TTITLE7=Composition B
EXTD=YEAR: 1993
EXTT0=
EXTT1=
EXTT2=
EXTT3=
EXTT4=
EXTT5=
EXTT6=
EXTT7=
PLAYORDER=
